<svg width="24" height="24" viewBox="0 0 24 24" fill="none" xmlns="http://www.w3.org/2000/svg">
<path d="M9.64999 13.7999L11.26 15.0499C11.47 15.2599 11.94 15.3598 12.25 15.3598H14.23C14.85 15.3598 15.53 14.8899 15.69 14.2699L16.94 10.4798C17.2 9.74981 16.73 9.12984 15.95 9.12984H13.87C13.56 9.12984 13.3 8.86984 13.35 8.50984L13.61 6.84981C13.71 6.37981 13.4 5.85979 12.93 5.70979C12.51 5.54979 11.99 5.75978 11.79 6.06978L9.66 9.23982" stroke="#ABB4C5" stroke-width="1.5" stroke-miterlimit="10"/>
<path d="M7 13.7998V8.70972C7 7.97972 7.30999 7.71973 8.03999 7.71973H8.56C9.29 7.71973 9.60001 7.97972 9.60001 8.70972V13.7998C9.60001 14.5298 9.29 14.7898 8.56 14.7898H8.03999C7.30999 14.7898 7 14.5298 7 13.7998Z" stroke="#ABB4C5" stroke-width="1.5" stroke-linecap="round" stroke-linejoin="round"/>
<path d="M18 18.86H17.24C16.44 18.86 15.68 19.17 15.12 19.73L13.41 21.42C12.63 22.19 11.36 22.19 10.58 21.42L8.87 19.73C8.31 19.17 7.54 18.86 6.75 18.86H6C4.34 18.86 3 17.53 3 15.89V4.97998C3 3.33998 4.34 2.01001 6 2.01001H18C19.66 2.01001 21 3.33998 21 4.97998V15.89C21 17.52 19.66 18.86 18 18.86Z" stroke="#ABB4C5" stroke-width="1.5" stroke-miterlimit="10" stroke-linecap="round" stroke-linejoin="round"/>
</svg>
